<mxfile host="app.diagrams.net" modified="2024-05-17T07:56:01.485Z" agent="Mozilla/5.0 (Windows NT 10.0; Win64; x64) AppleWebKit/537.36 (KHTML, like Gecko) Chrome/124.0.0.0 Safari/537.36" etag="bbB-16uN8h98TwfdbXZp" version="24.4.3" type="github">
  <diagram name="第 1 页" id="mlmDdOz77TS027HQn-Yh">
    <mxGraphModel dx="1434" dy="746" grid="1" gridSize="10" guides="1" tooltips="1" connect="1" arrows="1" fold="1" page="1" pageScale="1" pageWidth="827" pageHeight="1169" math="0" shadow="0">
      <root>
        <mxCell id="0" />
        <mxCell id="1" parent="0" />
        <mxCell id="seylh24Hap7znsJnbSdv-3" style="edgeStyle=orthogonalEdgeStyle;rounded=0;orthogonalLoop=1;jettySize=auto;html=1;exitX=1;exitY=0.5;exitDx=0;exitDy=0;entryX=0;entryY=0.5;entryDx=0;entryDy=0;" edge="1" parent="1" source="seylh24Hap7znsJnbSdv-1" target="seylh24Hap7znsJnbSdv-2">
          <mxGeometry relative="1" as="geometry" />
        </mxCell>
        <mxCell id="seylh24Hap7znsJnbSdv-4" value="上传数据" style="edgeLabel;html=1;align=center;verticalAlign=middle;resizable=0;points=[];" vertex="1" connectable="0" parent="seylh24Hap7znsJnbSdv-3">
          <mxGeometry x="-0.2375" y="2" relative="1" as="geometry">
            <mxPoint x="9" as="offset" />
          </mxGeometry>
        </mxCell>
        <mxCell id="seylh24Hap7znsJnbSdv-1" value="iot" style="rounded=0;whiteSpace=wrap;html=1;" vertex="1" parent="1">
          <mxGeometry x="20" y="150" width="70" height="60" as="geometry" />
        </mxCell>
        <mxCell id="seylh24Hap7znsJnbSdv-12" style="edgeStyle=orthogonalEdgeStyle;rounded=0;orthogonalLoop=1;jettySize=auto;html=1;exitX=1;exitY=0.5;exitDx=0;exitDy=0;entryX=0;entryY=0.5;entryDx=0;entryDy=0;" edge="1" parent="1" source="seylh24Hap7znsJnbSdv-2" target="seylh24Hap7znsJnbSdv-6">
          <mxGeometry relative="1" as="geometry" />
        </mxCell>
        <mxCell id="seylh24Hap7znsJnbSdv-13" value="发布消息" style="edgeLabel;html=1;align=center;verticalAlign=middle;resizable=0;points=[];" vertex="1" connectable="0" parent="seylh24Hap7znsJnbSdv-12">
          <mxGeometry x="-0.0889" y="-2" relative="1" as="geometry">
            <mxPoint as="offset" />
          </mxGeometry>
        </mxCell>
        <mxCell id="seylh24Hap7znsJnbSdv-2" value="数据中台" style="ellipse;whiteSpace=wrap;html=1;aspect=fixed;" vertex="1" parent="1">
          <mxGeometry x="210" y="140" width="80" height="80" as="geometry" />
        </mxCell>
        <mxCell id="seylh24Hap7znsJnbSdv-6" value="kafka" style="ellipse;whiteSpace=wrap;html=1;aspect=fixed;" vertex="1" parent="1">
          <mxGeometry x="380" y="140" width="80" height="80" as="geometry" />
        </mxCell>
        <mxCell id="seylh24Hap7znsJnbSdv-9" value="&amp;nbsp;index platform" style="rounded=0;whiteSpace=wrap;html=1;horizontal=1;align=left;verticalAlign=top;" vertex="1" parent="1">
          <mxGeometry x="600" y="75" width="140" height="210" as="geometry" />
        </mxCell>
        <mxCell id="seylh24Hap7znsJnbSdv-10" value="doris" style="rounded=0;whiteSpace=wrap;html=1;" vertex="1" parent="1">
          <mxGeometry x="610" y="115" width="120" height="60" as="geometry" />
        </mxCell>
        <mxCell id="seylh24Hap7znsJnbSdv-11" value="system" style="rounded=0;whiteSpace=wrap;html=1;" vertex="1" parent="1">
          <mxGeometry x="610" y="195" width="120" height="60" as="geometry" />
        </mxCell>
        <mxCell id="seylh24Hap7znsJnbSdv-16" style="edgeStyle=orthogonalEdgeStyle;rounded=0;orthogonalLoop=1;jettySize=auto;html=1;exitX=1;exitY=0.5;exitDx=0;exitDy=0;entryX=0;entryY=0.5;entryDx=0;entryDy=0;" edge="1" parent="1" source="seylh24Hap7znsJnbSdv-6" target="seylh24Hap7znsJnbSdv-10">
          <mxGeometry relative="1" as="geometry" />
        </mxCell>
        <mxCell id="seylh24Hap7znsJnbSdv-17" value="订阅更新数据" style="edgeLabel;html=1;align=center;verticalAlign=middle;resizable=0;points=[];" vertex="1" connectable="0" parent="seylh24Hap7znsJnbSdv-16">
          <mxGeometry x="-0.4378" relative="1" as="geometry">
            <mxPoint x="18" y="-20" as="offset" />
          </mxGeometry>
        </mxCell>
      </root>
    </mxGraphModel>
  </diagram>
</mxfile>
